<?xml version="1.0" encoding="utf-8"?>
<svg xmlns="http://www.w3.org/2000/svg"
	xmlns:xlink="http://www.w3.org/1999/xlink"
	width="22px" height="17px" viewBox="0 0 22 17">
<path fillRule="evenodd" d="M 22 14.17C 22 14.66 21.86 15.12 21.65 15.53 21.65 15.53 14.7 7.52 14.7 7.52 14.7 7.52 21.57 1.33 21.57 1.33 21.84 1.77 22 2.28 22 2.83 22 2.83 22 14.17 22 14.17 22 14.17 22 14.17 22 14.17ZM 11 8.98C 11 8.98 20.56 0.36 20.56 0.36 20.17 0.14 19.73-0 19.25-0 19.25-0 2.75-0 2.75-0 2.27-0 1.83 0.14 1.44 0.36 1.44 0.36 11 8.98 11 8.98ZM 13.67 8.45C 13.67 8.45 11.45 10.45 11.45 10.45 11.32 10.57 11.16 10.63 11 10.63 10.84 10.63 10.68 10.57 10.55 10.45 10.55 10.45 8.33 8.45 8.33 8.45 8.33 8.45 1.3 16.56 1.3 16.56 1.72 16.84 2.22 17 2.75 17 2.75 17 19.25 17 19.25 17 19.78 17 20.28 16.84 20.7 16.56 20.7 16.56 13.67 8.45 13.67 8.45ZM 0.43 1.33C 0.16 1.77-0 2.28-0 2.83-0 2.83-0 14.17-0 14.17-0 14.66 0.13 15.12 0.35 15.53 0.35 15.53 7.3 7.52 7.3 7.52 7.3 7.52 0.43 1.33 0.43 1.33Z" fill="rgb(159,159,159)"/></svg>