<?xml version="1.0" encoding="utf-8"?>
<svg xmlns="http://www.w3.org/2000/svg"
	xmlns:xlink="http://www.w3.org/1999/xlink"
	width="13px" height="21px" viewBox="0 0 13 21">
<path fillRule="evenodd" d="M 11.32 0.01C 11.32 0.01 1.68 0.01 1.68 0.01 0.75 0.01 0.01 0.69 0.01 1.54 0.01 1.54 0.01 19.48 0.01 19.48 0.01 20.32 0.75 21.01 1.68 21.01 1.68 21.01 11.32 21.01 11.32 21.01 12.24 21.01 12.99 20.32 12.99 19.48 12.99 19.48 12.99 1.54 12.99 1.54 12.99 0.69 12.24 0.01 11.32 0.01ZM 4.12 0.94C 4.12 0.94 8.88 0.94 8.88 0.94 9 0.94 9.1 1.1 9.1 1.31 9.1 1.51 9 1.67 8.88 1.67 8.88 1.67 4.12 1.67 4.12 1.67 4 1.67 3.9 1.51 3.9 1.31 3.9 1.1 4 0.94 4.12 0.94ZM 6.5 19.5C 5.91 19.5 5.44 19.06 5.44 18.52 5.44 17.98 5.91 17.55 6.5 17.55 7.09 17.55 7.56 17.98 7.56 18.52 7.56 19.06 7.09 19.5 6.5 19.5ZM 11.74 16.15C 11.74 16.15 1.26 16.15 1.26 16.15 1.26 16.15 1.26 2.59 1.26 2.59 1.26 2.59 11.74 2.59 11.74 2.59 11.74 2.59 11.74 16.15 11.74 16.15Z" fill="rgb(159,159,159)"/></svg>